<svg width="912" height="96" viewBox="0 0 912 96" fill="none" xmlns="http://www.w3.org/2000/svg">
<path d="M844.375 94.3636V1.27271H911.466V21.6363H869.648V37.6363H908.011V58H869.648V74H911.284V94.3636H844.375Z" fill="#7C86FF"/>
<path d="M832.42 1.27271V94.3636H811.33L777.693 45.4545H777.148V94.3636H751.875V1.27271H773.33L806.42 50H807.148V1.27271H832.42Z" fill="#7C86FF"/>
<path d="M740.182 47.8182C740.182 58.1818 738.167 66.9242 734.136 74.0455C730.106 81.1364 724.667 86.5152 717.818 90.1818C710.97 93.8182 703.333 95.6364 694.909 95.6364C686.424 95.6364 678.758 93.803 671.909 90.1364C665.091 86.4394 659.667 81.0455 655.636 73.9546C651.636 66.8333 649.636 58.1212 649.636 47.8182C649.636 37.4545 651.636 28.7273 655.636 21.6364C659.667 14.5152 665.091 9.13636 671.909 5.5C678.758 1.83333 686.424 0 694.909 0C703.333 0 710.97 1.83333 717.818 5.5C724.667 9.13636 730.106 14.5152 734.136 21.6364C738.167 28.7273 740.182 37.4545 740.182 47.8182ZM714.182 47.8182C714.182 42.2424 713.439 37.5455 711.955 33.7273C710.5 29.8788 708.333 26.9697 705.455 25C702.606 23 699.091 22 694.909 22C690.727 22 687.197 23 684.318 25C681.47 26.9697 679.303 29.8788 677.818 33.7273C676.364 37.5455 675.636 42.2424 675.636 47.8182C675.636 53.3939 676.364 58.1061 677.818 61.9546C679.303 65.7727 681.47 68.6818 684.318 70.6818C687.197 72.6515 690.727 73.6364 694.909 73.6364C699.091 73.6364 702.606 72.6515 705.455 70.6818C708.333 68.6818 710.5 65.7727 711.955 61.9546C713.439 58.1061 714.182 53.3939 714.182 47.8182Z" fill="#7C86FF"/>
<path d="M532 1.27271H557.273V50H558L591.091 1.27271H612.545V94.3636H587.273V45.4545H586.727L553.091 94.3636H532V1.27271Z" fill="#F1F5F9"/>
<path d="M436 94.3636V1.27271H461.273V37.6363H494.727V1.27271H520V94.3636H494.727V58H461.273V94.3636H436Z" fill="#F1F5F9"/>
<path d="M340 94.3636V1.27271H365.273V37.6363H398.727V1.27271H424V94.3636H398.727V58H365.273V94.3636H340Z" fill="#F1F5F9"/>
<path d="M328.307 47.8182C328.307 58.1818 326.292 66.9242 322.261 74.0455C318.231 81.1364 312.792 86.5152 305.943 90.1818C299.095 93.8182 291.458 95.6364 283.034 95.6364C274.549 95.6364 266.883 93.803 260.034 90.1364C253.216 86.4394 247.792 81.0455 243.761 73.9546C239.761 66.8333 237.761 58.1212 237.761 47.8182C237.761 37.4545 239.761 28.7273 243.761 21.6364C247.792 14.5152 253.216 9.13636 260.034 5.5C266.883 1.83333 274.549 0 283.034 0C291.458 0 299.095 1.83333 305.943 5.5C312.792 9.13636 318.231 14.5152 322.261 21.6364C326.292 28.7273 328.307 37.4545 328.307 47.8182ZM302.307 47.8182C302.307 42.2424 301.564 37.5455 300.08 33.7273C298.625 29.8788 296.458 26.9697 293.58 25C290.731 23 287.216 22 283.034 22C278.852 22 275.322 23 272.443 25C269.595 26.9697 267.428 29.8788 265.943 33.7273C264.489 37.5455 263.761 42.2424 263.761 47.8182C263.761 53.3939 264.489 58.1061 265.943 61.9546C267.428 65.7727 269.595 68.6818 272.443 70.6818C275.322 72.6515 278.852 73.6364 283.034 73.6364C287.216 73.6364 290.731 72.6515 293.58 70.6818C296.458 68.6818 298.625 65.7727 300.08 61.9546C301.564 58.1061 302.307 53.3939 302.307 47.8182Z" fill="#F1F5F9"/>
<path d="M175.33 1.27271V94.3636H150.966V1.27271H175.33ZM91.6932 94.3636L120.239 44.9091L92.0569 1.27271H123.33L142.057 37.6363H184.966L202.784 1.27271H233.875L206.966 44.5454L234.602 94.3636H204.057L188.057 60.9091H138.784L122.057 94.3636H91.6932Z" fill="#F1F5F9"/>
<path d="M35.8182 94.3636H0V1.27271H35.4545C45.0303 1.27271 53.303 3.13634 60.2727 6.86362C67.2727 10.5606 72.6667 15.8939 76.4546 22.8636C80.2727 29.803 82.1818 38.1212 82.1818 47.8182C82.1818 57.5151 80.2879 65.8485 76.5 72.8182C72.7121 79.7576 67.3485 85.0909 60.4091 88.8182C53.4697 92.5151 45.2727 94.3636 35.8182 94.3636ZM25.2727 72.9091H34.9091C39.5152 72.9091 43.4394 72.1666 46.6818 70.6818C49.9545 69.197 52.4394 66.6363 54.1364 63C55.8636 59.3636 56.7273 54.303 56.7273 47.8182C56.7273 41.3333 55.8485 36.2727 54.0909 32.6363C52.3636 29 49.8182 26.4394 46.4545 24.9545C43.1212 23.4697 39.0303 22.7272 34.1818 22.7272H25.2727V72.9091Z" fill="#F1F5F9"/>
</svg>
