<svg width="722" height="97" viewBox="0 0 722 97" fill="none" xmlns="http://www.w3.org/2000/svg">
<path d="M654.375 95.0455V1.95456H721.466V22.3182H679.648V38.3182H718.011V58.6818H679.648V74.6818H721.284V95.0455H654.375Z" fill="#7C86FF"/>
<path d="M642.42 1.95456V95.0455H621.33L587.693 46.1364H587.148V95.0455H561.875V1.95456H583.33L616.42 50.6818H617.148V1.95456H642.42Z" fill="#7C86FF"/>
<path d="M550.182 48.5C550.182 58.8636 548.167 67.6061 544.136 74.7273C540.106 81.8182 534.667 87.197 527.818 90.8636C520.97 94.5 513.333 96.3182 504.909 96.3182C496.424 96.3182 488.758 94.4849 481.909 90.8182C475.091 87.1212 469.667 81.7273 465.636 74.6364C461.636 67.5152 459.636 58.803 459.636 48.5C459.636 38.1364 461.636 29.4091 465.636 22.3182C469.667 15.197 475.091 9.81819 481.909 6.18182C488.758 2.51516 496.424 0.681824 504.909 0.681824C513.333 0.681824 520.97 2.51516 527.818 6.18182C534.667 9.81819 540.106 15.197 544.136 22.3182C548.167 29.4091 550.182 38.1364 550.182 48.5ZM524.182 48.5C524.182 42.9243 523.439 38.2273 521.955 34.4091C520.5 30.5606 518.333 27.6515 515.455 25.6818C512.606 23.6818 509.091 22.6818 504.909 22.6818C500.727 22.6818 497.197 23.6818 494.318 25.6818C491.47 27.6515 489.303 30.5606 487.818 34.4091C486.364 38.2273 485.636 42.9243 485.636 48.5C485.636 54.0758 486.364 58.7879 487.818 62.6364C489.303 66.4546 491.47 69.3636 494.318 71.3636C497.197 73.3333 500.727 74.3182 504.909 74.3182C509.091 74.3182 512.606 73.3333 515.455 71.3636C518.333 69.3636 520.5 66.4546 521.955 62.6364C523.439 58.7879 524.182 54.0758 524.182 48.5Z" fill="#7C86FF"/>
<path d="M340 95.0455V1.95456H365.273V38.3182H398.727V1.95456H424V95.0455H398.727V58.6818H365.273V95.0455H340Z" fill="#314158"/>
<path d="M328.307 48.5C328.307 58.8636 326.292 67.6061 322.261 74.7273C318.231 81.8182 312.792 87.197 305.943 90.8636C299.095 94.5 291.458 96.3182 283.034 96.3182C274.549 96.3182 266.883 94.4849 260.034 90.8182C253.216 87.1212 247.792 81.7273 243.761 74.6364C239.761 67.5152 237.761 58.803 237.761 48.5C237.761 38.1364 239.761 29.4091 243.761 22.3182C247.792 15.197 253.216 9.81819 260.034 6.18182C266.883 2.51516 274.549 0.681824 283.034 0.681824C291.458 0.681824 299.095 2.51516 305.943 6.18182C312.792 9.81819 318.231 15.197 322.261 22.3182C326.292 29.4091 328.307 38.1364 328.307 48.5ZM302.307 48.5C302.307 42.9243 301.564 38.2273 300.08 34.4091C298.625 30.5606 296.458 27.6515 293.58 25.6818C290.731 23.6818 287.216 22.6818 283.034 22.6818C278.852 22.6818 275.322 23.6818 272.443 25.6818C269.595 27.6515 267.428 30.5606 265.943 34.4091C264.489 38.2273 263.761 42.9243 263.761 48.5C263.761 54.0758 264.489 58.7879 265.943 62.6364C267.428 66.4546 269.595 69.3636 272.443 71.3636C275.322 73.3333 278.852 74.3182 283.034 74.3182C287.216 74.3182 290.731 73.3333 293.58 71.3636C296.458 69.3636 298.625 66.4546 300.08 62.6364C301.564 58.7879 302.307 54.0758 302.307 48.5Z" fill="#314158"/>
<path d="M175.33 1.95456V95.0455H150.966V1.95456H175.33ZM91.6932 95.0455L120.239 45.5909L92.0568 1.95456H123.33L142.057 38.3182H184.966L202.784 1.95456H233.875L206.966 45.2273L234.602 95.0455H204.057L188.057 61.5909H138.784L122.057 95.0455H91.6932Z" fill="#314158"/>
<path d="M35.8182 95.0455H0V1.95456H35.4545C45.0303 1.95456 53.303 3.8182 60.2727 7.54547C67.2727 11.2424 72.6667 16.5758 76.4546 23.5455C80.2727 30.4849 82.1818 38.803 82.1818 48.5C82.1818 58.197 80.2879 66.5303 76.5 73.5C72.7121 80.4394 67.3485 85.7727 60.4091 89.5C53.4697 93.197 45.2727 95.0455 35.8182 95.0455ZM25.2727 73.5909H34.9091C39.5152 73.5909 43.4394 72.8485 46.6818 71.3637C49.9545 69.8788 52.4394 67.3182 54.1364 63.6818C55.8636 60.0455 56.7273 54.9849 56.7273 48.5C56.7273 42.0152 55.8485 36.9546 54.0909 33.3182C52.3636 29.6818 49.8182 27.1212 46.4545 25.6364C43.1212 24.1515 39.0303 23.4091 34.1818 23.4091H25.2727V73.5909Z" fill="#314158"/>
</svg>
