<svg width="345" height="345" viewBox="0 0 345 345" fill="none" xmlns="http://www.w3.org/2000/svg">
<path d="M117.366 14.1968C121.287 14.1968 124.466 11.0187 124.466 7.09839C124.466 3.17806 121.287 0 117.366 0C113.446 0 110.267 3.17806 110.267 7.09839C110.267 11.0187 113.446 14.1968 117.366 14.1968Z" fill="#62748E"/>
<path d="M144.912 14.1968C148.833 14.1968 152.011 11.0187 152.011 7.09839C152.011 3.17806 148.833 0 144.912 0C140.991 0 137.813 3.17806 137.813 7.09839C137.813 11.0187 140.991 14.1968 144.912 14.1968Z" fill="#62748E"/>
<path d="M158.727 14.1968C162.648 14.1968 165.826 11.0187 165.826 7.09839C165.826 3.17806 162.648 0 158.727 0C154.806 0 151.628 3.17806 151.628 7.09839C151.628 11.0187 154.806 14.1968 158.727 14.1968Z" fill="#62748E"/>
<path d="M186.273 14.1968C190.194 14.1968 193.372 11.0187 193.372 7.09839C193.372 3.17806 190.194 0 186.273 0C182.352 0 179.174 3.17806 179.174 7.09839C179.174 11.0187 182.352 14.1968 186.273 14.1968Z" fill="#62748E"/>
<path d="M158.727 27.989C162.648 27.989 165.826 24.811 165.826 20.8906C165.826 16.9703 162.648 13.7922 158.727 13.7922C154.806 13.7922 151.628 16.9703 151.628 20.8906C151.628 24.811 154.806 27.989 158.727 27.989Z" fill="#62748E"/>
<path d="M172.542 27.989C176.463 27.989 179.641 24.811 179.641 20.8906C179.641 16.9703 176.463 13.7922 172.542 13.7922C168.621 13.7922 165.443 16.9703 165.443 20.8906C165.443 24.811 168.621 27.989 172.542 27.989Z" fill="#62748E"/>
<path d="M186.273 27.989C190.194 27.989 193.372 24.811 193.372 20.8906C193.372 16.9703 190.194 13.7922 186.273 13.7922C182.352 13.7922 179.174 16.9703 179.174 20.8906C179.174 24.811 182.352 27.989 186.273 27.989Z" fill="#62748E"/>
<path d="M200.088 27.989C204.009 27.989 207.187 24.811 207.187 20.8906C207.187 16.9703 204.009 13.7922 200.088 13.7922C196.167 13.7922 192.989 16.9703 192.989 20.8906C192.989 24.811 196.167 27.989 200.088 27.989Z" fill="#62748E"/>
<path d="M213.903 27.989C217.824 27.989 221.002 24.811 221.002 20.8906C221.002 16.9703 217.824 13.7922 213.903 13.7922C209.982 13.7922 206.803 16.9703 206.803 20.8906C206.803 24.811 209.982 27.989 213.903 27.989Z" fill="#62748E"/>
<path d="M227.633 27.989C231.554 27.989 234.733 24.811 234.733 20.8906C234.733 16.9703 231.554 13.7922 227.633 13.7922C223.713 13.7922 220.534 16.9703 220.534 20.8906C220.534 24.811 223.713 27.989 227.633 27.989Z" fill="#62748E"/>
<path d="M144.912 41.7602C148.833 41.7602 152.011 38.5821 152.011 34.6618C152.011 30.7415 148.833 27.5634 144.912 27.5634C140.991 27.5634 137.813 30.7415 137.813 34.6618C137.813 38.5821 140.991 41.7602 144.912 41.7602Z" fill="#62748E"/>
<path d="M172.542 41.7602C176.463 41.7602 179.641 38.5821 179.641 34.6618C179.641 30.7415 176.463 27.5634 172.542 27.5634C168.621 27.5634 165.443 30.7415 165.443 34.6618C165.443 38.5821 168.621 41.7602 172.542 41.7602Z" fill="#62748E"/>
<path d="M200.088 41.7602C204.009 41.7602 207.187 38.5821 207.187 34.6618C207.187 30.7415 204.009 27.5634 200.088 27.5634C196.167 27.5634 192.989 30.7415 192.989 34.6618C192.989 38.5821 196.167 41.7602 200.088 41.7602Z" fill="#62748E"/>
<path d="M213.903 41.7602C217.824 41.7602 221.002 38.5821 221.002 34.6618C221.002 30.7415 217.824 27.5634 213.903 27.5634C209.982 27.5634 206.803 30.7415 206.803 34.6618C206.803 38.5821 209.982 41.7602 213.903 41.7602Z" fill="#62748E"/>
<path d="M227.633 41.7602C231.554 41.7602 234.733 38.5821 234.733 34.6618C234.733 30.7415 231.554 27.5634 227.633 27.5634C223.713 27.5634 220.534 30.7415 220.534 34.6618C220.534 38.5821 223.713 41.7602 227.633 41.7602Z" fill="#62748E"/>
<path d="M144.912 55.5524C148.833 55.5524 152.011 52.3744 152.011 48.454C152.011 44.5337 148.833 41.3557 144.912 41.3557C140.991 41.3557 137.813 44.5337 137.813 48.454C137.813 52.3744 140.991 55.5524 144.912 55.5524Z" fill="#62748E"/>
<path d="M172.542 55.5524C176.463 55.5524 179.641 52.3744 179.641 48.454C179.641 44.5337 176.463 41.3557 172.542 41.3557C168.621 41.3557 165.443 44.5337 165.443 48.454C165.443 52.3744 168.621 55.5524 172.542 55.5524Z" fill="#62748E"/>
<path d="M213.903 55.5524C217.824 55.5524 221.002 52.3744 221.002 48.454C221.002 44.5337 217.824 41.3557 213.903 41.3557C209.982 41.3557 206.803 44.5337 206.803 48.454C206.803 52.3744 209.982 55.5524 213.903 55.5524Z" fill="#62748E"/>
<path d="M227.633 55.5524C231.554 55.5524 234.733 52.3744 234.733 48.454C234.733 44.5337 231.554 41.3557 227.633 41.3557C223.713 41.3557 220.534 44.5337 220.534 48.454C220.534 52.3744 223.713 55.5524 227.633 55.5524Z" fill="#62748E"/>
<path d="M117.366 69.3236C121.287 69.3236 124.466 66.1455 124.466 62.2252C124.466 58.3049 121.287 55.1268 117.366 55.1268C113.446 55.1268 110.267 58.3049 110.267 62.2252C110.267 66.1455 113.446 69.3236 117.366 69.3236Z" fill="#62748E"/>
<path d="M131.181 69.3236C135.102 69.3236 138.281 66.1455 138.281 62.2252C138.281 58.3049 135.102 55.1268 131.181 55.1268C127.261 55.1268 124.082 58.3049 124.082 62.2252C124.082 66.1455 127.261 69.3236 131.181 69.3236Z" fill="#62748E"/>
<path d="M186.273 69.3236C190.194 69.3236 193.372 66.1455 193.372 62.2252C193.372 58.3049 190.194 55.1268 186.273 55.1268C182.352 55.1268 179.174 58.3049 179.174 62.2252C179.174 66.1455 182.352 69.3236 186.273 69.3236Z" fill="#62748E"/>
<path d="M227.633 69.3236C231.554 69.3236 234.733 66.1455 234.733 62.2252C234.733 58.3049 231.554 55.1268 227.633 55.1268C223.713 55.1268 220.534 58.3049 220.534 62.2252C220.534 66.1455 223.713 69.3236 227.633 69.3236Z" fill="#62748E"/>
<path d="M117.366 83.1158C121.287 83.1158 124.466 79.9378 124.466 76.0175C124.466 72.0971 121.287 68.9191 117.366 68.9191C113.446 68.9191 110.267 72.0971 110.267 76.0175C110.267 79.9378 113.446 83.1158 117.366 83.1158Z" fill="#62748E"/>
<path d="M131.181 83.1158C135.102 83.1158 138.281 79.9378 138.281 76.0175C138.281 72.0971 135.102 68.9191 131.181 68.9191C127.261 68.9191 124.082 72.0971 124.082 76.0175C124.082 79.9378 127.261 83.1158 131.181 83.1158Z" fill="#62748E"/>
<path d="M186.273 83.1158C190.194 83.1158 193.372 79.9378 193.372 76.0175C193.372 72.0971 190.194 68.9191 186.273 68.9191C182.352 68.9191 179.174 72.0971 179.174 76.0175C179.174 79.9378 182.352 83.1158 186.273 83.1158Z" fill="#62748E"/>
<path d="M200.088 83.1158C204.009 83.1158 207.187 79.9378 207.187 76.0175C207.187 72.0971 204.009 68.9191 200.088 68.9191C196.167 68.9191 192.989 72.0971 192.989 76.0175C192.989 79.9378 196.167 83.1158 200.088 83.1158Z" fill="#62748E"/>
<path d="M213.903 83.1158C217.824 83.1158 221.002 79.9378 221.002 76.0175C221.002 72.0971 217.824 68.9191 213.903 68.9191C209.982 68.9191 206.803 72.0971 206.803 76.0175C206.803 79.9378 209.982 83.1158 213.903 83.1158Z" fill="#62748E"/>
<path d="M117.366 96.8871C121.287 96.8871 124.466 93.709 124.466 89.7887C124.466 85.8684 121.287 82.6903 117.366 82.6903C113.446 82.6903 110.267 85.8684 110.267 89.7887C110.267 93.709 113.446 96.8871 117.366 96.8871Z" fill="#62748E"/>
<path d="M144.912 96.8871C148.833 96.8871 152.011 93.709 152.011 89.7887C152.011 85.8684 148.833 82.6903 144.912 82.6903C140.991 82.6903 137.813 85.8684 137.813 89.7887C137.813 93.709 140.991 96.8871 144.912 96.8871Z" fill="#62748E"/>
<path d="M172.542 96.8871C176.463 96.8871 179.641 93.709 179.641 89.7887C179.641 85.8684 176.463 82.6903 172.542 82.6903C168.621 82.6903 165.443 85.8684 165.443 89.7887C165.443 93.709 168.621 96.8871 172.542 96.8871Z" fill="#62748E"/>
<path d="M200.088 96.8871C204.009 96.8871 207.187 93.709 207.187 89.7887C207.187 85.8684 204.009 82.6903 200.088 82.6903C196.167 82.6903 192.989 85.8684 192.989 89.7887C192.989 93.709 196.167 96.8871 200.088 96.8871Z" fill="#62748E"/>
<path d="M227.633 96.8871C231.554 96.8871 234.733 93.709 234.733 89.7887C234.733 85.8684 231.554 82.6903 227.633 82.6903C223.713 82.6903 220.534 85.8684 220.534 89.7887C220.534 93.709 223.713 96.8871 227.633 96.8871Z" fill="#62748E"/>
<path d="M131.181 110.679C135.102 110.679 138.281 107.501 138.281 103.581C138.281 99.6606 135.102 96.4825 131.181 96.4825C127.261 96.4825 124.082 99.6606 124.082 103.581C124.082 107.501 127.261 110.679 131.181 110.679Z" fill="#62748E"/>
<path d="M144.912 110.679C148.833 110.679 152.011 107.501 152.011 103.581C152.011 99.6606 148.833 96.4825 144.912 96.4825C140.991 96.4825 137.813 99.6606 137.813 103.581C137.813 107.501 140.991 110.679 144.912 110.679Z" fill="#62748E"/>
<path d="M172.542 110.679C176.463 110.679 179.641 107.501 179.641 103.581C179.641 99.6606 176.463 96.4825 172.542 96.4825C168.621 96.4825 165.443 99.6606 165.443 103.581C165.443 107.501 168.621 110.679 172.542 110.679Z" fill="#62748E"/>
<path d="M186.273 110.679C190.194 110.679 193.372 107.501 193.372 103.581C193.372 99.6606 190.194 96.4825 186.273 96.4825C182.352 96.4825 179.174 99.6606 179.174 103.581C179.174 107.501 182.352 110.679 186.273 110.679Z" fill="#62748E"/>
<path d="M20.9142 124.472C24.835 124.472 28.0135 121.293 28.0135 117.373C28.0135 113.453 24.835 110.275 20.9142 110.275C16.9934 110.275 13.8149 113.453 13.8149 117.373C13.8149 121.293 16.9934 124.472 20.9142 124.472Z" fill="#62748E"/>
<path d="M34.645 124.472C38.5659 124.472 41.7443 121.293 41.7443 117.373C41.7443 113.453 38.5659 110.275 34.645 110.275C30.7242 110.275 27.5458 113.453 27.5458 117.373C27.5458 121.293 30.7242 124.472 34.645 124.472Z" fill="#62748E"/>
<path d="M48.46 124.472C52.3808 124.472 55.5593 121.293 55.5593 117.373C55.5593 113.453 52.3808 110.275 48.46 110.275C44.5392 110.275 41.3607 113.453 41.3607 117.373C41.3607 121.293 44.5392 124.472 48.46 124.472Z" fill="#62748E"/>
<path d="M62.2749 124.472C66.1957 124.472 69.3742 121.293 69.3742 117.373C69.3742 113.453 66.1957 110.275 62.2749 110.275C58.3541 110.275 55.1757 113.453 55.1757 117.373C55.1757 121.293 58.3541 124.472 62.2749 124.472Z" fill="#62748E"/>
<path d="M76.0058 124.472C79.9266 124.472 83.105 121.293 83.105 117.373C83.105 113.453 79.9266 110.275 76.0058 110.275C72.0849 110.275 68.9065 113.453 68.9065 117.373C68.9065 121.293 72.0849 124.472 76.0058 124.472Z" fill="#62748E"/>
<path d="M89.8207 124.472C93.7415 124.472 96.92 121.293 96.92 117.373C96.92 113.453 93.7415 110.275 89.8207 110.275C85.8999 110.275 82.7214 113.453 82.7214 117.373C82.7214 121.293 85.8999 124.472 89.8207 124.472Z" fill="#62748E"/>
<path d="M103.636 124.472C107.556 124.472 110.735 121.293 110.735 117.373C110.735 113.453 107.556 110.275 103.636 110.275C99.7148 110.275 96.5364 113.453 96.5364 117.373C96.5364 121.293 99.7148 124.472 103.636 124.472Z" fill="#62748E"/>
<path d="M144.912 124.472C148.833 124.472 152.011 121.293 152.011 117.373C152.011 113.453 148.833 110.275 144.912 110.275C140.991 110.275 137.813 113.453 137.813 117.373C137.813 121.293 140.991 124.472 144.912 124.472Z" fill="#62748E"/>
<path d="M172.542 124.472C176.463 124.472 179.641 121.293 179.641 117.373C179.641 113.453 176.463 110.275 172.542 110.275C168.621 110.275 165.443 113.453 165.443 117.373C165.443 121.293 168.621 124.472 172.542 124.472Z" fill="#62748E"/>
<path d="M200.088 124.472C204.009 124.472 207.187 121.293 207.187 117.373C207.187 113.453 204.009 110.275 200.088 110.275C196.167 110.275 192.989 113.453 192.989 117.373C192.989 121.293 196.167 124.472 200.088 124.472Z" fill="#62748E"/>
<path d="M213.903 124.472C217.824 124.472 221.002 121.293 221.002 117.373C221.002 113.453 217.824 110.275 213.903 110.275C209.982 110.275 206.803 113.453 206.803 117.373C206.803 121.293 209.982 124.472 213.903 124.472Z" fill="#62748E"/>
<path d="M227.633 124.472C231.554 124.472 234.733 121.293 234.733 117.373C234.733 113.453 231.554 110.275 227.633 110.275C223.713 110.275 220.534 113.453 220.534 117.373C220.534 121.293 223.713 124.472 227.633 124.472Z" fill="#62748E"/>
<path d="M268.994 124.472C272.915 124.472 276.094 121.293 276.094 117.373C276.094 113.453 272.915 110.275 268.994 110.275C265.073 110.275 261.895 113.453 261.895 117.373C261.895 121.293 265.073 124.472 268.994 124.472Z" fill="#62748E"/>
<path d="M282.809 124.472C286.73 124.472 289.908 121.293 289.908 117.373C289.908 113.453 286.73 110.275 282.809 110.275C278.888 110.275 275.71 113.453 275.71 117.373C275.71 121.293 278.888 124.472 282.809 124.472Z" fill="#62748E"/>
<path d="M337.901 124.472C341.822 124.472 345 121.293 345 117.373C345 113.453 341.822 110.275 337.901 110.275C333.98 110.275 330.802 113.453 330.802 117.373C330.802 121.293 333.98 124.472 337.901 124.472Z" fill="#62748E"/>
<path d="M7.09927 138.243C11.0201 138.243 14.1985 135.065 14.1985 131.144C14.1985 127.224 11.0201 124.046 7.09927 124.046C3.17845 124.046 0 127.224 0 131.144C0 135.065 3.17845 138.243 7.09927 138.243Z" fill="#62748E"/>
<path d="M20.9142 138.243C24.835 138.243 28.0135 135.065 28.0135 131.144C28.0135 127.224 24.835 124.046 20.9142 124.046C16.9934 124.046 13.8149 127.224 13.8149 131.144C13.8149 135.065 16.9934 138.243 20.9142 138.243Z" fill="#62748E"/>
<path d="M48.46 138.243C52.3808 138.243 55.5593 135.065 55.5593 131.144C55.5593 127.224 52.3808 124.046 48.46 124.046C44.5392 124.046 41.3607 127.224 41.3607 131.144C41.3607 135.065 44.5392 138.243 48.46 138.243Z" fill="#62748E"/>
<path d="M62.2749 138.243C66.1957 138.243 69.3742 135.065 69.3742 131.144C69.3742 127.224 66.1957 124.046 62.2749 124.046C58.3541 124.046 55.1757 127.224 55.1757 131.144C55.1757 135.065 58.3541 138.243 62.2749 138.243Z" fill="#62748E"/>
<path d="M76.0058 138.243C79.9266 138.243 83.105 135.065 83.105 131.144C83.105 127.224 79.9266 124.046 76.0058 124.046C72.0849 124.046 68.9065 127.224 68.9065 131.144C68.9065 135.065 72.0849 138.243 76.0058 138.243Z" fill="#62748E"/>
<path d="M117.366 138.243C121.287 138.243 124.466 135.065 124.466 131.144C124.466 127.224 121.287 124.046 117.366 124.046C113.446 124.046 110.267 127.224 110.267 131.144C110.267 135.065 113.446 138.243 117.366 138.243Z" fill="#62748E"/>
<path d="M131.181 138.243C135.102 138.243 138.281 135.065 138.281 131.144C138.281 127.224 135.102 124.046 131.181 124.046C127.261 124.046 124.082 127.224 124.082 131.144C124.082 135.065 127.261 138.243 131.181 138.243Z" fill="#62748E"/>
<path d="M144.912 138.243C148.833 138.243 152.011 135.065 152.011 131.144C152.011 127.224 148.833 124.046 144.912 124.046C140.991 124.046 137.813 127.224 137.813 131.144C137.813 135.065 140.991 138.243 144.912 138.243Z" fill="#62748E"/>
<path d="M227.633 138.264C231.554 138.264 234.733 135.086 234.733 131.165C234.733 127.245 231.554 124.067 227.633 124.067C223.713 124.067 220.534 127.245 220.534 131.165C220.534 135.086 223.713 138.264 227.633 138.264Z" fill="#62748E"/>
<path d="M268.994 138.243C272.915 138.243 276.094 135.065 276.094 131.144C276.094 127.224 272.915 124.046 268.994 124.046C265.073 124.046 261.895 127.224 261.895 131.144C261.895 135.065 265.073 138.243 268.994 138.243Z" fill="#62748E"/>
<path d="M324.17 138.243C328.091 138.243 331.269 135.065 331.269 131.144C331.269 127.224 328.091 124.046 324.17 124.046C320.249 124.046 317.071 127.224 317.071 131.144C317.071 135.065 320.249 138.243 324.17 138.243Z" fill="#62748E"/>
<path d="M20.9142 152.035C24.835 152.035 28.0135 148.857 28.0135 144.937C28.0135 141.016 24.835 137.838 20.9142 137.838C16.9934 137.838 13.8149 141.016 13.8149 144.937C13.8149 148.857 16.9934 152.035 20.9142 152.035Z" fill="#62748E"/>
<path d="M48.46 152.035C52.3808 152.035 55.5593 148.857 55.5593 144.937C55.5593 141.016 52.3808 137.838 48.46 137.838C44.5392 137.838 41.3607 141.016 41.3607 144.937C41.3607 148.857 44.5392 152.035 48.46 152.035Z" fill="#62748E"/>
<path d="M62.2749 152.035C66.1957 152.035 69.3742 148.857 69.3742 144.937C69.3742 141.016 66.1957 137.838 62.2749 137.838C58.3541 137.838 55.1757 141.016 55.1757 144.937C55.1757 148.857 58.3541 152.035 62.2749 152.035Z" fill="#62748E"/>
<path d="M76.0058 152.035C79.9266 152.035 83.105 148.857 83.105 144.937C83.105 141.016 79.9266 137.838 76.0058 137.838C72.0849 137.838 68.9065 141.016 68.9065 144.937C68.9065 148.857 72.0849 152.035 76.0058 152.035Z" fill="#62748E"/>
<path d="M89.8207 152.035C93.7415 152.035 96.92 148.857 96.92 144.937C96.92 141.016 93.7415 137.838 89.8207 137.838C85.8999 137.838 82.7214 141.016 82.7214 144.937C82.7214 148.857 85.8999 152.035 89.8207 152.035Z" fill="#62748E"/>
<path d="M131.181 152.035C135.102 152.035 138.281 148.857 138.281 144.937C138.281 141.016 135.102 137.838 131.181 137.838C127.261 137.838 124.082 141.016 124.082 144.937C124.082 148.857 127.261 152.035 131.181 152.035Z" fill="#62748E"/>
<path d="M144.912 152.035C148.833 152.035 152.011 148.857 152.011 144.937C152.011 141.016 148.833 137.838 144.912 137.838C140.991 137.838 137.813 141.016 137.813 144.937C137.813 148.857 140.991 152.035 144.912 152.035Z" fill="#62748E"/>
<path d="M158.727 152.035C162.648 152.035 165.826 148.857 165.826 144.937C165.826 141.016 162.648 137.838 158.727 137.838C154.806 137.838 151.628 141.016 151.628 144.937C151.628 148.857 154.806 152.035 158.727 152.035Z" fill="#62748E"/>
<path d="M213.903 152.056C217.824 152.056 221.002 148.878 221.002 144.958C221.002 141.037 217.824 137.859 213.903 137.859C209.982 137.859 206.803 141.037 206.803 144.958C206.803 148.878 209.982 152.056 213.903 152.056Z" fill="#62748E"/>
<path d="M241.449 152.035C245.369 152.035 248.548 148.857 248.548 144.937C248.548 141.016 245.369 137.838 241.449 137.838C237.528 137.838 234.349 141.016 234.349 144.937C234.349 148.857 237.528 152.035 241.449 152.035Z" fill="#62748E"/>
<path d="M255.264 152.035C259.184 152.035 262.363 148.857 262.363 144.937C262.363 141.016 259.184 137.838 255.264 137.838C251.343 137.838 248.164 141.016 248.164 144.937C248.164 148.857 251.343 152.035 255.264 152.035Z" fill="#62748E"/>
<path d="M296.624 152.035C300.545 152.035 303.723 148.857 303.723 144.937C303.723 141.016 300.545 137.838 296.624 137.838C292.703 137.838 289.525 141.016 289.525 144.937C289.525 148.857 292.703 152.035 296.624 152.035Z" fill="#62748E"/>
<path d="M324.17 152.035C328.091 152.035 331.269 148.857 331.269 144.937C331.269 141.016 328.091 137.838 324.17 137.838C320.249 137.838 317.071 141.016 317.071 144.937C317.071 148.857 320.249 152.035 324.17 152.035Z" fill="#62748E"/>
<path d="M337.901 152.035C341.822 152.035 345 148.857 345 144.937C345 141.016 341.822 137.838 337.901 137.838C333.98 137.838 330.802 141.016 330.802 144.937C330.802 148.857 333.98 152.035 337.901 152.035Z" fill="#62748E"/>
<path d="M7.09927 165.806C11.0201 165.806 14.1985 162.628 14.1985 158.708C14.1985 154.787 11.0201 151.609 7.09927 151.609C3.17845 151.609 0 154.787 0 158.708C0 162.628 3.17845 165.806 7.09927 165.806Z" fill="#62748E"/>
<path d="M34.645 165.806C38.5659 165.806 41.7443 162.628 41.7443 158.708C41.7443 154.787 38.5659 151.609 34.645 151.609C30.7242 151.609 27.5458 154.787 27.5458 158.708C27.5458 162.628 30.7242 165.806 34.645 165.806Z" fill="#62748E"/>
<path d="M103.636 165.806C107.556 165.806 110.735 162.628 110.735 158.708C110.735 154.787 107.556 151.609 103.636 151.609C99.7148 151.609 96.5364 154.787 96.5364 158.708C96.5364 162.628 99.7148 165.806 103.636 165.806Z" fill="#62748E"/>
<path d="M117.366 165.806C121.287 165.806 124.466 162.628 124.466 158.708C124.466 154.787 121.287 151.609 117.366 151.609C113.446 151.609 110.267 154.787 110.267 158.708C110.267 162.628 113.446 165.806 117.366 165.806Z" fill="#62748E"/>
<path d="M131.181 165.806C135.102 165.806 138.281 162.628 138.281 158.708C138.281 154.787 135.102 151.609 131.181 151.609C127.261 151.609 124.082 154.787 124.082 158.708C124.082 162.628 127.261 165.806 131.181 165.806Z" fill="#62748E"/>
<path d="M144.912 165.806C148.833 165.806 152.011 162.628 152.011 158.708C152.011 154.787 148.833 151.609 144.912 151.609C140.991 151.609 137.813 154.787 137.813 158.708C137.813 162.628 140.991 165.806 144.912 165.806Z" fill="#62748E"/>
<path d="M158.727 165.806C162.648 165.806 165.826 162.628 165.826 158.708C165.826 154.787 162.648 151.609 158.727 151.609C154.806 151.609 151.628 154.787 151.628 158.708C151.628 162.628 154.806 165.806 158.727 165.806Z" fill="#62748E"/>
<path d="M200.088 165.806C204.009 165.806 207.187 162.628 207.187 158.708C207.187 154.787 204.009 151.609 200.088 151.609C196.167 151.609 192.989 154.787 192.989 158.708C192.989 162.628 196.167 165.806 200.088 165.806Z" fill="#62748E"/>
<path d="M227.633 165.827C231.554 165.827 234.733 162.649 234.733 158.729C234.733 154.808 231.554 151.63 227.633 151.63C223.713 151.63 220.534 154.808 220.534 158.729C220.534 162.649 223.713 165.827 227.633 165.827Z" fill="#62748E"/>
<path d="M241.449 165.806C245.369 165.806 248.548 162.628 248.548 158.708C248.548 154.787 245.369 151.609 241.449 151.609C237.528 151.609 234.349 154.787 234.349 158.708C234.349 162.628 237.528 165.806 241.449 165.806Z" fill="#62748E"/>
<path d="M255.264 165.806C259.184 165.806 262.363 162.628 262.363 158.708C262.363 154.787 259.184 151.609 255.264 151.609C251.343 151.609 248.164 154.787 248.164 158.708C248.164 162.628 251.343 165.806 255.264 165.806Z" fill="#62748E"/>
<path d="M268.994 165.806C272.915 165.806 276.094 162.628 276.094 158.708C276.094 154.787 272.915 151.609 268.994 151.609C265.073 151.609 261.895 154.787 261.895 158.708C261.895 162.628 265.073 165.806 268.994 165.806Z" fill="#62748E"/>
<path d="M337.901 165.806C341.822 165.806 345 162.628 345 158.708C345 154.787 341.822 151.609 337.901 151.609C333.98 151.609 330.802 154.787 330.802 158.708C330.802 162.628 333.98 165.806 337.901 165.806Z" fill="#62748E"/>
<path d="M20.9142 179.598C24.835 179.598 28.0135 176.42 28.0135 172.5C28.0135 168.58 24.835 165.402 20.9142 165.402C16.9934 165.402 13.8149 168.58 13.8149 172.5C13.8149 176.42 16.9934 179.598 20.9142 179.598Z" fill="#62748E"/>
<path d="M48.46 179.598C52.3808 179.598 55.5593 176.42 55.5593 172.5C55.5593 168.58 52.3808 165.402 48.46 165.402C44.5392 165.402 41.3607 168.58 41.3607 172.5C41.3607 176.42 44.5392 179.598 48.46 179.598Z" fill="#62748E"/>
<path d="M62.2749 179.598C66.1957 179.598 69.3742 176.42 69.3742 172.5C69.3742 168.58 66.1957 165.402 62.2749 165.402C58.3541 165.402 55.1757 168.58 55.1757 172.5C55.1757 176.42 58.3541 179.598 62.2749 179.598Z" fill="#62748E"/>
<path d="M76.0058 179.598C79.9266 179.598 83.105 176.42 83.105 172.5C83.105 168.58 79.9266 165.402 76.0058 165.402C72.0849 165.402 68.9065 168.58 68.9065 172.5C68.9065 176.42 72.0849 179.598 76.0058 179.598Z" fill="#62748E"/>
<path d="M89.8207 179.598C93.7415 179.598 96.92 176.42 96.92 172.5C96.92 168.58 93.7415 165.402 89.8207 165.402C85.8999 165.402 82.7214 168.58 82.7214 172.5C82.7214 176.42 85.8999 179.598 89.8207 179.598Z" fill="#62748E"/>
<path d="M103.636 179.598C107.556 179.598 110.735 176.42 110.735 172.5C110.735 168.58 107.556 165.402 103.636 165.402C99.7148 165.402 96.5364 168.58 96.5364 172.5C96.5364 176.42 99.7148 179.598 103.636 179.598Z" fill="#62748E"/>
<path d="M131.181 179.598C135.102 179.598 138.281 176.42 138.281 172.5C138.281 168.58 135.102 165.402 131.181 165.402C127.261 165.402 124.082 168.58 124.082 172.5C124.082 176.42 127.261 179.598 131.181 179.598Z" fill="#62748E"/>
<path d="M144.912 179.598C148.833 179.598 152.011 176.42 152.011 172.5C152.011 168.58 148.833 165.402 144.912 165.402C140.991 165.402 137.813 168.58 137.813 172.5C137.813 176.42 140.991 179.598 144.912 179.598Z" fill="#62748E"/>
<path d="M158.727 179.598C162.648 179.598 165.826 176.42 165.826 172.5C165.826 168.58 162.648 165.402 158.727 165.402C154.806 165.402 151.628 168.58 151.628 172.5C151.628 176.42 154.806 179.598 158.727 179.598Z" fill="#62748E"/>
<path d="M241.449 179.598C245.369 179.598 248.548 176.42 248.548 172.5C248.548 168.58 245.369 165.402 241.449 165.402C237.528 165.402 234.349 168.58 234.349 172.5C234.349 176.42 237.528 179.598 241.449 179.598Z" fill="#62748E"/>
<path d="M255.264 179.598C259.184 179.598 262.363 176.42 262.363 172.5C262.363 168.58 259.184 165.402 255.264 165.402C251.343 165.402 248.164 168.58 248.164 172.5C248.164 176.42 251.343 179.598 255.264 179.598Z" fill="#62748E"/>
<path d="M282.809 179.598C286.73 179.598 289.908 176.42 289.908 172.5C289.908 168.58 286.73 165.402 282.809 165.402C278.888 165.402 275.71 168.58 275.71 172.5C275.71 176.42 278.888 179.598 282.809 179.598Z" fill="#62748E"/>
<path d="M310.355 179.598C314.276 179.598 317.454 176.42 317.454 172.5C317.454 168.58 314.276 165.402 310.355 165.402C306.434 165.402 303.256 168.58 303.256 172.5C303.256 176.42 306.434 179.598 310.355 179.598Z" fill="#62748E"/>
<path d="M324.17 179.598C328.091 179.598 331.269 176.42 331.269 172.5C331.269 168.58 328.091 165.402 324.17 165.402C320.249 165.402 317.071 168.58 317.071 172.5C317.071 176.42 320.249 179.598 324.17 179.598Z" fill="#62748E"/>
<path d="M337.901 179.598C341.822 179.598 345 176.42 345 172.5C345 168.58 341.822 165.402 337.901 165.402C333.98 165.402 330.802 168.58 330.802 172.5C330.802 176.42 333.98 179.598 337.901 179.598Z" fill="#62748E"/>
<path d="M7.09927 193.37C11.0201 193.37 14.1985 190.192 14.1985 186.271C14.1985 182.351 11.0201 179.173 7.09927 179.173C3.17845 179.173 0 182.351 0 186.271C0 190.192 3.17845 193.37 7.09927 193.37Z" fill="#62748E"/>
<path d="M103.636 193.37C107.556 193.37 110.735 190.192 110.735 186.271C110.735 182.351 107.556 179.173 103.636 179.173C99.7148 179.173 96.5364 182.351 96.5364 186.271C96.5364 190.192 99.7148 193.37 103.636 193.37Z" fill="#62748E"/>
<path d="M117.366 193.37C121.287 193.37 124.466 190.192 124.466 186.271C124.466 182.351 121.287 179.173 117.366 179.173C113.446 179.173 110.267 182.351 110.267 186.271C110.267 190.192 113.446 193.37 117.366 193.37Z" fill="#62748E"/>
<path d="M131.181 193.37C135.102 193.37 138.281 190.192 138.281 186.271C138.281 182.351 135.102 179.173 131.181 179.173C127.261 179.173 124.082 182.351 124.082 186.271C124.082 190.192 127.261 193.37 131.181 193.37Z" fill="#62748E"/>
<path d="M144.912 193.37C148.833 193.37 152.011 190.192 152.011 186.271C152.011 182.351 148.833 179.173 144.912 179.173C140.991 179.173 137.813 182.351 137.813 186.271C137.813 190.192 140.991 193.37 144.912 193.37Z" fill="#62748E"/>
<path d="M158.727 193.37C162.648 193.37 165.826 190.192 165.826 186.271C165.826 182.351 162.648 179.173 158.727 179.173C154.806 179.173 151.628 182.351 151.628 186.271C151.628 190.192 154.806 193.37 158.727 193.37Z" fill="#62748E"/>
<path d="M172.542 193.37C176.463 193.37 179.641 190.192 179.641 186.271C179.641 182.351 176.463 179.173 172.542 179.173C168.621 179.173 165.443 182.351 165.443 186.271C165.443 190.192 168.621 193.37 172.542 193.37Z" fill="#62748E"/>
<path d="M186.273 193.37C190.194 193.37 193.372 190.192 193.372 186.271C193.372 182.351 190.194 179.173 186.273 179.173C182.352 179.173 179.174 182.351 179.174 186.271C179.174 190.192 182.352 193.37 186.273 193.37Z" fill="#62748E"/>
<path d="M200.088 193.37C204.009 193.37 207.187 190.192 207.187 186.271C207.187 182.351 204.009 179.173 200.088 179.173C196.167 179.173 192.989 182.351 192.989 186.271C192.989 190.192 196.167 193.37 200.088 193.37Z" fill="#62748E"/>
<path d="M241.449 193.37C245.369 193.37 248.548 190.192 248.548 186.271C248.548 182.351 245.369 179.173 241.449 179.173C237.528 179.173 234.349 182.351 234.349 186.271C234.349 190.192 237.528 193.37 241.449 193.37Z" fill="#62748E"/>
<path d="M268.994 193.37C272.915 193.37 276.094 190.192 276.094 186.271C276.094 182.351 272.915 179.173 268.994 179.173C265.073 179.173 261.895 182.351 261.895 186.271C261.895 190.192 265.073 193.37 268.994 193.37Z" fill="#62748E"/>
<path d="M296.624 193.37C300.545 193.37 303.723 190.192 303.723 186.271C303.723 182.351 300.545 179.173 296.624 179.173C292.703 179.173 289.525 182.351 289.525 186.271C289.525 190.192 292.703 193.37 296.624 193.37Z" fill="#62748E"/>
<path d="M324.17 193.37C328.091 193.37 331.269 190.192 331.269 186.271C331.269 182.351 328.091 179.173 324.17 179.173C320.249 179.173 317.071 182.351 317.071 186.271C317.071 190.192 320.249 193.37 324.17 193.37Z" fill="#62748E"/>
<path d="M7.09927 207.162C11.0201 207.162 14.1985 203.984 14.1985 200.063C14.1985 196.143 11.0201 192.965 7.09927 192.965C3.17845 192.965 0 196.143 0 200.063C0 203.984 3.17845 207.162 7.09927 207.162Z" fill="#62748E"/>
<path d="M34.645 207.162C38.5659 207.162 41.7443 203.984 41.7443 200.063C41.7443 196.143 38.5659 192.965 34.645 192.965C30.7242 192.965 27.5458 196.143 27.5458 200.063C27.5458 203.984 30.7242 207.162 34.645 207.162Z" fill="#62748E"/>
<path d="M48.46 207.162C52.3808 207.162 55.5593 203.984 55.5593 200.063C55.5593 196.143 52.3808 192.965 48.46 192.965C44.5392 192.965 41.3607 196.143 41.3607 200.063C41.3607 203.984 44.5392 207.162 48.46 207.162Z" fill="#62748E"/>
<path d="M62.2749 207.162C66.1957 207.162 69.3742 203.984 69.3742 200.063C69.3742 196.143 66.1957 192.965 62.2749 192.965C58.3541 192.965 55.1757 196.143 55.1757 200.063C55.1757 203.984 58.3541 207.162 62.2749 207.162Z" fill="#62748E"/>
<path d="M89.8207 207.162C93.7415 207.162 96.92 203.984 96.92 200.063C96.92 196.143 93.7415 192.965 89.8207 192.965C85.8999 192.965 82.7214 196.143 82.7214 200.063C82.7214 203.984 85.8999 207.162 89.8207 207.162Z" fill="#62748E"/>
<path d="M131.181 207.162C135.102 207.162 138.281 203.984 138.281 200.063C138.281 196.143 135.102 192.965 131.181 192.965C127.261 192.965 124.082 196.143 124.082 200.063C124.082 203.984 127.261 207.162 131.181 207.162Z" fill="#62748E"/>
<path d="M158.727 207.162C162.648 207.162 165.826 203.984 165.826 200.063C165.826 196.143 162.648 192.965 158.727 192.965C154.806 192.965 151.628 196.143 151.628 200.063C151.628 203.984 154.806 207.162 158.727 207.162Z" fill="#62748E"/>
<path d="M172.542 207.162C176.463 207.162 179.641 203.984 179.641 200.063C179.641 196.143 176.463 192.965 172.542 192.965C168.621 192.965 165.443 196.143 165.443 200.063C165.443 203.984 168.621 207.162 172.542 207.162Z" fill="#62748E"/>
<path d="M213.903 207.183C217.824 207.183 221.002 204.005 221.002 200.084C221.002 196.164 217.824 192.986 213.903 192.986C209.982 192.986 206.803 196.164 206.803 200.084C206.803 204.005 209.982 207.183 213.903 207.183Z" fill="#62748E"/>
<path d="M227.633 207.183C231.554 207.183 234.733 204.005 234.733 200.084C234.733 196.164 231.554 192.986 227.633 192.986C223.713 192.986 220.534 196.164 220.534 200.084C220.534 204.005 223.713 207.183 227.633 207.183Z" fill="#62748E"/>
<path d="M255.264 207.162C259.184 207.162 262.363 203.984 262.363 200.063C262.363 196.143 259.184 192.965 255.264 192.965C251.343 192.965 248.164 196.143 248.164 200.063C248.164 203.984 251.343 207.162 255.264 207.162Z" fill="#62748E"/>
<path d="M268.994 207.162C272.915 207.162 276.094 203.984 276.094 200.063C276.094 196.143 272.915 192.965 268.994 192.965C265.073 192.965 261.895 196.143 261.895 200.063C261.895 203.984 265.073 207.162 268.994 207.162Z" fill="#62748E"/>
<path d="M282.809 207.162C286.73 207.162 289.908 203.984 289.908 200.063C289.908 196.143 286.73 192.965 282.809 192.965C278.888 192.965 275.71 196.143 275.71 200.063C275.71 203.984 278.888 207.162 282.809 207.162Z" fill="#62748E"/>
<path d="M296.624 207.162C300.545 207.162 303.723 203.984 303.723 200.063C303.723 196.143 300.545 192.965 296.624 192.965C292.703 192.965 289.525 196.143 289.525 200.063C289.525 203.984 292.703 207.162 296.624 207.162Z" fill="#62748E"/>
<path d="M324.17 207.162C328.091 207.162 331.269 203.984 331.269 200.063C331.269 196.143 328.091 192.965 324.17 192.965C320.249 192.965 317.071 196.143 317.071 200.063C317.071 203.984 320.249 207.162 324.17 207.162Z" fill="#62748E"/>
<path d="M337.901 207.162C341.822 207.162 345 203.984 345 200.063C345 196.143 341.822 192.965 337.901 192.965C333.98 192.965 330.802 196.143 330.802 200.063C330.802 203.984 333.98 207.162 337.901 207.162Z" fill="#62748E"/>
<path d="M7.09927 220.954C11.0201 220.954 14.1985 217.776 14.1985 213.856C14.1985 209.935 11.0201 206.757 7.09927 206.757C3.17845 206.757 0 209.935 0 213.856C0 217.776 3.17845 220.954 7.09927 220.954Z" fill="#62748E"/>
<path d="M34.645 220.954C38.5659 220.954 41.7443 217.776 41.7443 213.856C41.7443 209.935 38.5659 206.757 34.645 206.757C30.7242 206.757 27.5458 209.935 27.5458 213.856C27.5458 217.776 30.7242 220.954 34.645 220.954Z" fill="#62748E"/>
<path d="M62.2749 220.954C66.1957 220.954 69.3742 217.776 69.3742 213.856C69.3742 209.935 66.1957 206.757 62.2749 206.757C58.3541 206.757 55.1757 209.935 55.1757 213.856C55.1757 217.776 58.3541 220.954 62.2749 220.954Z" fill="#62748E"/>
<path d="M103.636 220.954C107.556 220.954 110.735 217.776 110.735 213.856C110.735 209.935 107.556 206.757 103.636 206.757C99.7148 206.757 96.5364 209.935 96.5364 213.856C96.5364 217.776 99.7148 220.954 103.636 220.954Z" fill="#62748E"/>
<path d="M131.181 220.954C135.102 220.954 138.281 217.776 138.281 213.856C138.281 209.935 135.102 206.757 131.181 206.757C127.261 206.757 124.082 209.935 124.082 213.856C124.082 217.776 127.261 220.954 131.181 220.954Z" fill="#62748E"/>
<path d="M172.542 220.954C176.463 220.954 179.641 217.776 179.641 213.856C179.641 209.935 176.463 206.757 172.542 206.757C168.621 206.757 165.443 209.935 165.443 213.856C165.443 217.776 168.621 220.954 172.542 220.954Z" fill="#62748E"/>
<path d="M186.273 220.954C190.194 220.954 193.372 217.776 193.372 213.856C193.372 209.935 190.194 206.757 186.273 206.757C182.352 206.757 179.174 209.935 179.174 213.856C179.174 217.776 182.352 220.954 186.273 220.954Z" fill="#62748E"/>
<path d="M200.088 220.954C204.009 220.954 207.187 217.776 207.187 213.856C207.187 209.935 204.009 206.757 200.088 206.757C196.167 206.757 192.989 209.935 192.989 213.856C192.989 217.776 196.167 220.954 200.088 220.954Z" fill="#62748E"/>
<path d="M227.633 220.975C231.554 220.975 234.733 217.797 234.733 213.877C234.733 209.956 231.554 206.778 227.633 206.778C223.713 206.778 220.534 209.956 220.534 213.877C220.534 217.797 223.713 220.975 227.633 220.975Z" fill="#62748E"/>
<path d="M241.449 220.954C245.369 220.954 248.548 217.776 248.548 213.856C248.548 209.935 245.369 206.757 241.449 206.757C237.528 206.757 234.349 209.935 234.349 213.856C234.349 217.776 237.528 220.954 241.449 220.954Z" fill="#62748E"/>
<path d="M268.994 220.954C272.915 220.954 276.094 217.776 276.094 213.856C276.094 209.935 272.915 206.757 268.994 206.757C265.073 206.757 261.895 209.935 261.895 213.856C261.895 217.776 265.073 220.954 268.994 220.954Z" fill="#62748E"/>
<path d="M282.809 220.954C286.73 220.954 289.908 217.776 289.908 213.856C289.908 209.935 286.73 206.757 282.809 206.757C278.888 206.757 275.71 209.935 275.71 213.856C275.71 217.776 278.888 220.954 282.809 220.954Z" fill="#62748E"/>
<path d="M337.901 220.954C341.822 220.954 345 217.776 345 213.856C345 209.935 341.822 206.757 337.901 206.757C333.98 206.757 330.802 209.935 330.802 213.856C330.802 217.776 333.98 220.954 337.901 220.954Z" fill="#62748E"/>
<path d="M7.09927 234.725C11.0201 234.725 14.1985 231.547 14.1985 227.627C14.1985 223.706 11.0201 220.528 7.09927 220.528C3.17845 220.528 0 223.706 0 227.627C0 231.547 3.17845 234.725 7.09927 234.725Z" fill="#62748E"/>
<path d="M34.645 234.725C38.5659 234.725 41.7443 231.547 41.7443 227.627C41.7443 223.706 38.5659 220.528 34.645 220.528C30.7242 220.528 27.5458 223.706 27.5458 227.627C27.5458 231.547 30.7242 234.725 34.645 234.725Z" fill="#62748E"/>
<path d="M48.46 234.725C52.3808 234.725 55.5593 231.547 55.5593 227.627C55.5593 223.706 52.3808 220.528 48.46 220.528C44.5392 220.528 41.3607 223.706 41.3607 227.627C41.3607 231.547 44.5392 234.725 48.46 234.725Z" fill="#62748E"/>
<path d="M76.0058 234.725C79.9266 234.725 83.105 231.547 83.105 227.627C83.105 223.706 79.9266 220.528 76.0058 220.528C72.0849 220.528 68.9065 223.706 68.9065 227.627C68.9065 231.547 72.0849 234.725 76.0058 234.725Z" fill="#62748E"/>
<path d="M89.8207 234.725C93.7415 234.725 96.92 231.547 96.92 227.627C96.92 223.706 93.7415 220.528 89.8207 220.528C85.8999 220.528 82.7214 223.706 82.7214 227.627C82.7214 231.547 85.8999 234.725 89.8207 234.725Z" fill="#62748E"/>
<path d="M103.636 234.725C107.556 234.725 110.735 231.547 110.735 227.627C110.735 223.706 107.556 220.528 103.636 220.528C99.7148 220.528 96.5364 223.706 96.5364 227.627C96.5364 231.547 99.7148 234.725 103.636 234.725Z" fill="#62748E"/>
<path d="M131.181 234.725C135.102 234.725 138.281 231.547 138.281 227.627C138.281 223.706 135.102 220.528 131.181 220.528C127.261 220.528 124.082 223.706 124.082 227.627C124.082 231.547 127.261 234.725 131.181 234.725Z" fill="#62748E"/>
<path d="M172.542 234.725C176.463 234.725 179.641 231.547 179.641 227.627C179.641 223.706 176.463 220.528 172.542 220.528C168.621 220.528 165.443 223.706 165.443 227.627C165.443 231.547 168.621 234.725 172.542 234.725Z" fill="#62748E"/>
<path d="M186.273 234.725C190.194 234.725 193.372 231.547 193.372 227.627C193.372 223.706 190.194 220.528 186.273 220.528C182.352 220.528 179.174 223.706 179.174 227.627C179.174 231.547 182.352 234.725 186.273 234.725Z" fill="#62748E"/>
<path d="M200.088 234.725C204.009 234.725 207.187 231.547 207.187 227.627C207.187 223.706 204.009 220.528 200.088 220.528C196.167 220.528 192.989 223.706 192.989 227.627C192.989 231.547 196.167 234.725 200.088 234.725Z" fill="#62748E"/>
<path d="M227.633 234.746C231.554 234.746 234.733 231.568 234.733 227.648C234.733 223.727 231.554 220.549 227.633 220.549C223.713 220.549 220.534 223.727 220.534 227.648C220.534 231.568 223.713 234.746 227.633 234.746Z" fill="#62748E"/>
<path d="M241.449 234.725C245.369 234.725 248.548 231.547 248.548 227.627C248.548 223.706 245.369 220.528 241.449 220.528C237.528 220.528 234.349 223.706 234.349 227.627C234.349 231.547 237.528 234.725 241.449 234.725Z" fill="#62748E"/>
<path d="M255.264 234.725C259.184 234.725 262.363 231.547 262.363 227.627C262.363 223.706 259.184 220.528 255.264 220.528C251.343 220.528 248.164 223.706 248.164 227.627C248.164 231.547 251.343 234.725 255.264 234.725Z" fill="#62748E"/>
<path d="M268.994 234.725C272.915 234.725 276.094 231.547 276.094 227.627C276.094 223.706 272.915 220.528 268.994 220.528C265.073 220.528 261.895 223.706 261.895 227.627C261.895 231.547 265.073 234.725 268.994 234.725Z" fill="#62748E"/>
<path d="M282.809 234.725C286.73 234.725 289.908 231.547 289.908 227.627C289.908 223.706 286.73 220.528 282.809 220.528C278.888 220.528 275.71 223.706 275.71 227.627C275.71 231.547 278.888 234.725 282.809 234.725Z" fill="#62748E"/>
<path d="M310.355 234.725C314.276 234.725 317.454 231.547 317.454 227.627C317.454 223.706 314.276 220.528 310.355 220.528C306.434 220.528 303.256 223.706 303.256 227.627C303.256 231.547 306.434 234.725 310.355 234.725Z" fill="#62748E"/>
<path d="M117.366 248.517C121.287 248.517 124.466 245.339 124.466 241.419C124.466 237.499 121.287 234.321 117.366 234.321C113.446 234.321 110.267 237.499 110.267 241.419C110.267 245.339 113.446 248.517 117.366 248.517Z" fill="#62748E"/>
<path d="M200.088 248.517C204.009 248.517 207.187 245.339 207.187 241.419C207.187 237.499 204.009 234.321 200.088 234.321C196.167 234.321 192.989 237.499 192.989 241.419C192.989 245.339 196.167 248.517 200.088 248.517Z" fill="#62748E"/>
<path d="M213.903 248.496C217.824 248.496 221.002 245.318 221.002 241.398C221.002 237.478 217.824 234.3 213.903 234.3C209.982 234.3 206.803 237.478 206.803 241.398C206.803 245.318 209.982 248.496 213.903 248.496Z" fill="#62748E"/>
<path d="M227.633 248.496C231.554 248.496 234.733 245.318 234.733 241.398C234.733 237.478 231.554 234.3 227.633 234.3C223.713 234.3 220.534 237.478 220.534 241.398C220.534 245.318 223.713 248.496 227.633 248.496Z" fill="#62748E"/>
<path d="M282.809 248.517C286.73 248.517 289.908 245.339 289.908 241.419C289.908 237.499 286.73 234.321 282.809 234.321C278.888 234.321 275.71 237.499 275.71 241.419C275.71 245.339 278.888 248.517 282.809 248.517Z" fill="#62748E"/>
<path d="M296.624 248.517C300.545 248.517 303.723 245.339 303.723 241.419C303.723 237.499 300.545 234.321 296.624 234.321C292.703 234.321 289.525 237.499 289.525 241.419C289.525 245.339 292.703 248.517 296.624 248.517Z" fill="#62748E"/>
<path d="M117.366 262.289C121.287 262.289 124.466 259.111 124.466 255.19C124.466 251.27 121.287 248.092 117.366 248.092C113.446 248.092 110.267 251.27 110.267 255.19C110.267 259.111 113.446 262.289 117.366 262.289Z" fill="#62748E"/>
<path d="M172.542 262.289C176.463 262.289 179.641 259.111 179.641 255.19C179.641 251.27 176.463 248.092 172.542 248.092C168.621 248.092 165.443 251.27 165.443 255.19C165.443 259.111 168.621 262.289 172.542 262.289Z" fill="#62748E"/>
<path d="M186.273 262.289C190.194 262.289 193.372 259.111 193.372 255.19C193.372 251.27 190.194 248.092 186.273 248.092C182.352 248.092 179.174 251.27 179.174 255.19C179.174 259.111 182.352 262.289 186.273 262.289Z" fill="#62748E"/>
<path d="M227.633 262.268C231.554 262.268 234.733 259.09 234.733 255.169C234.733 251.249 231.554 248.071 227.633 248.071C223.713 248.071 220.534 251.249 220.534 255.169C220.534 259.09 223.713 262.268 227.633 262.268Z" fill="#62748E"/>
<path d="M255.264 262.289C259.184 262.289 262.363 259.111 262.363 255.19C262.363 251.27 259.184 248.092 255.264 248.092C251.343 248.092 248.164 251.27 248.164 255.19C248.164 259.111 251.343 262.289 255.264 262.289Z" fill="#62748E"/>
<path d="M282.809 262.289C286.73 262.289 289.908 259.111 289.908 255.19C289.908 251.27 286.73 248.092 282.809 248.092C278.888 248.092 275.71 251.27 275.71 255.19C275.71 259.111 278.888 262.289 282.809 262.289Z" fill="#62748E"/>
<path d="M310.355 262.289C314.276 262.289 317.454 259.111 317.454 255.19C317.454 251.27 314.276 248.092 310.355 248.092C306.434 248.092 303.256 251.27 303.256 255.19C303.256 259.111 306.434 262.289 310.355 262.289Z" fill="#62748E"/>
<path d="M324.17 262.289C328.091 262.289 331.269 259.111 331.269 255.19C331.269 251.27 328.091 248.092 324.17 248.092C320.249 248.092 317.071 251.27 317.071 255.19C317.071 259.111 320.249 262.289 324.17 262.289Z" fill="#62748E"/>
<path d="M337.901 262.289C341.822 262.289 345 259.111 345 255.19C345 251.27 341.822 248.092 337.901 248.092C333.98 248.092 330.802 251.27 330.802 255.19C330.802 259.111 333.98 262.289 337.901 262.289Z" fill="#62748E"/>
<path d="M117.366 276.081C121.287 276.081 124.466 272.903 124.466 268.983C124.466 265.062 121.287 261.884 117.366 261.884C113.446 261.884 110.267 265.062 110.267 268.983C110.267 272.903 113.446 276.081 117.366 276.081Z" fill="#62748E"/>
<path d="M158.727 276.081C162.648 276.081 165.826 272.903 165.826 268.983C165.826 265.062 162.648 261.884 158.727 261.884C154.806 261.884 151.628 265.062 151.628 268.983C151.628 272.903 154.806 276.081 158.727 276.081Z" fill="#62748E"/>
<path d="M172.542 276.081C176.463 276.081 179.641 272.903 179.641 268.983C179.641 265.062 176.463 261.884 172.542 261.884C168.621 261.884 165.443 265.062 165.443 268.983C165.443 272.903 168.621 276.081 172.542 276.081Z" fill="#62748E"/>
<path d="M227.633 276.06C231.554 276.06 234.733 272.882 234.733 268.961C234.733 265.041 231.554 261.863 227.633 261.863C223.713 261.863 220.534 265.041 220.534 268.961C220.534 272.882 223.713 276.06 227.633 276.06Z" fill="#62748E"/>
<path d="M282.809 276.081C286.73 276.081 289.908 272.903 289.908 268.983C289.908 265.062 286.73 261.884 282.809 261.884C278.888 261.884 275.71 265.062 275.71 268.983C275.71 272.903 278.888 276.081 282.809 276.081Z" fill="#62748E"/>
<path d="M296.624 276.081C300.545 276.081 303.723 272.903 303.723 268.983C303.723 265.062 300.545 261.884 296.624 261.884C292.703 261.884 289.525 265.062 289.525 268.983C289.525 272.903 292.703 276.081 296.624 276.081Z" fill="#62748E"/>
<path d="M117.366 289.852C121.287 289.852 124.466 286.674 124.466 282.754C124.466 278.833 121.287 275.655 117.366 275.655C113.446 275.655 110.267 278.833 110.267 282.754C110.267 286.674 113.446 289.852 117.366 289.852Z" fill="#62748E"/>
<path d="M172.542 289.852C176.463 289.852 179.641 286.674 179.641 282.754C179.641 278.833 176.463 275.655 172.542 275.655C168.621 275.655 165.443 278.833 165.443 282.754C165.443 286.674 168.621 289.852 172.542 289.852Z" fill="#62748E"/>
<path d="M186.273 289.852C190.194 289.852 193.372 286.674 193.372 282.754C193.372 278.833 190.194 275.655 186.273 275.655C182.352 275.655 179.174 278.833 179.174 282.754C179.174 286.674 182.352 289.852 186.273 289.852Z" fill="#62748E"/>
<path d="M200.088 289.852C204.009 289.852 207.187 286.674 207.187 282.754C207.187 278.833 204.009 275.655 200.088 275.655C196.167 275.655 192.989 278.833 192.989 282.754C192.989 286.674 196.167 289.852 200.088 289.852Z" fill="#62748E"/>
<path d="M213.903 289.831C217.824 289.831 221.002 286.653 221.002 282.733C221.002 278.812 217.824 275.634 213.903 275.634C209.982 275.634 206.803 278.812 206.803 282.733C206.803 286.653 209.982 289.831 213.903 289.831Z" fill="#62748E"/>
<path d="M227.633 289.831C231.554 289.831 234.733 286.653 234.733 282.733C234.733 278.812 231.554 275.634 227.633 275.634C223.713 275.634 220.534 278.812 220.534 282.733C220.534 286.653 223.713 289.831 227.633 289.831Z" fill="#62748E"/>
<path d="M241.449 289.852C245.369 289.852 248.548 286.674 248.548 282.754C248.548 278.833 245.369 275.655 241.449 275.655C237.528 275.655 234.349 278.833 234.349 282.754C234.349 286.674 237.528 289.852 241.449 289.852Z" fill="#62748E"/>
<path d="M255.264 289.852C259.184 289.852 262.363 286.674 262.363 282.754C262.363 278.833 259.184 275.655 255.264 275.655C251.343 275.655 248.164 278.833 248.164 282.754C248.164 286.674 251.343 289.852 255.264 289.852Z" fill="#62748E"/>
<path d="M268.994 289.852C272.915 289.852 276.094 286.674 276.094 282.754C276.094 278.833 272.915 275.655 268.994 275.655C265.073 275.655 261.895 278.833 261.895 282.754C261.895 286.674 265.073 289.852 268.994 289.852Z" fill="#62748E"/>
<path d="M282.809 289.852C286.73 289.852 289.908 286.674 289.908 282.754C289.908 278.833 286.73 275.655 282.809 275.655C278.888 275.655 275.71 278.833 275.71 282.754C275.71 286.674 278.888 289.852 282.809 289.852Z" fill="#62748E"/>
<path d="M310.355 289.852C314.276 289.852 317.454 286.674 317.454 282.754C317.454 278.833 314.276 275.655 310.355 275.655C306.434 275.655 303.256 278.833 303.256 282.754C303.256 286.674 306.434 289.852 310.355 289.852Z" fill="#62748E"/>
<path d="M337.901 289.852C341.822 289.852 345 286.674 345 282.754C345 278.833 341.822 275.655 337.901 275.655C333.98 275.655 330.802 278.833 330.802 282.754C330.802 286.674 333.98 289.852 337.901 289.852Z" fill="#62748E"/>
<path d="M117.366 303.644C121.287 303.644 124.466 300.466 124.466 296.546C124.466 292.626 121.287 289.448 117.366 289.448C113.446 289.448 110.267 292.626 110.267 296.546C110.267 300.466 113.446 303.644 117.366 303.644Z" fill="#62748E"/>
<path d="M158.727 303.644C162.648 303.644 165.826 300.466 165.826 296.546C165.826 292.626 162.648 289.448 158.727 289.448C154.806 289.448 151.628 292.626 151.628 296.546C151.628 300.466 154.806 303.644 158.727 303.644Z" fill="#62748E"/>
<path d="M200.088 303.644C204.009 303.644 207.187 300.466 207.187 296.546C207.187 292.626 204.009 289.448 200.088 289.448C196.167 289.448 192.989 292.626 192.989 296.546C192.989 300.466 196.167 303.644 200.088 303.644Z" fill="#62748E"/>
<path d="M213.903 303.623C217.824 303.623 221.002 300.445 221.002 296.525C221.002 292.605 217.824 289.427 213.903 289.427C209.982 289.427 206.803 292.605 206.803 296.525C206.803 300.445 209.982 303.623 213.903 303.623Z" fill="#62748E"/>
<path d="M227.633 303.623C231.554 303.623 234.733 300.445 234.733 296.525C234.733 292.605 231.554 289.427 227.633 289.427C223.713 289.427 220.534 292.605 220.534 296.525C220.534 300.445 223.713 303.623 227.633 303.623Z" fill="#62748E"/>
<path d="M241.449 303.644C245.369 303.644 248.548 300.466 248.548 296.546C248.548 292.626 245.369 289.448 241.449 289.448C237.528 289.448 234.349 292.626 234.349 296.546C234.349 300.466 237.528 303.644 241.449 303.644Z" fill="#62748E"/>
<path d="M255.264 303.644C259.184 303.644 262.363 300.466 262.363 296.546C262.363 292.626 259.184 289.448 255.264 289.448C251.343 289.448 248.164 292.626 248.164 296.546C248.164 300.466 251.343 303.644 255.264 303.644Z" fill="#62748E"/>
<path d="M282.809 303.644C286.73 303.644 289.908 300.466 289.908 296.546C289.908 292.626 286.73 289.448 282.809 289.448C278.888 289.448 275.71 292.626 275.71 296.546C275.71 300.466 278.888 303.644 282.809 303.644Z" fill="#62748E"/>
<path d="M296.624 303.644C300.545 303.644 303.723 300.466 303.723 296.546C303.723 292.626 300.545 289.448 296.624 289.448C292.703 289.448 289.525 292.626 289.525 296.546C289.525 300.466 292.703 303.644 296.624 303.644Z" fill="#62748E"/>
<path d="M310.355 303.644C314.276 303.644 317.454 300.466 317.454 296.546C317.454 292.626 314.276 289.448 310.355 289.448C306.434 289.448 303.256 292.626 303.256 296.546C303.256 300.466 306.434 303.644 310.355 303.644Z" fill="#62748E"/>
<path d="M324.17 303.644C328.091 303.644 331.269 300.466 331.269 296.546C331.269 292.626 328.091 289.448 324.17 289.448C320.249 289.448 317.071 292.626 317.071 296.546C317.071 300.466 320.249 303.644 324.17 303.644Z" fill="#62748E"/>
<path d="M337.901 303.644C341.822 303.644 345 300.466 345 296.546C345 292.626 341.822 289.448 337.901 289.448C333.98 289.448 330.802 292.626 330.802 296.546C330.802 300.466 333.98 303.644 337.901 303.644Z" fill="#62748E"/>
<path d="M117.366 317.437C121.287 317.437 124.466 314.258 124.466 310.338C124.466 306.418 121.287 303.24 117.366 303.24C113.446 303.24 110.267 306.418 110.267 310.338C110.267 314.258 113.446 317.437 117.366 317.437Z" fill="#62748E"/>
<path d="M158.727 317.437C162.648 317.437 165.826 314.258 165.826 310.338C165.826 306.418 162.648 303.24 158.727 303.24C154.806 303.24 151.628 306.418 151.628 310.338C151.628 314.258 154.806 317.437 158.727 317.437Z" fill="#62748E"/>
<path d="M172.542 317.437C176.463 317.437 179.641 314.258 179.641 310.338C179.641 306.418 176.463 303.24 172.542 303.24C168.621 303.24 165.443 306.418 165.443 310.338C165.443 314.258 168.621 317.437 172.542 317.437Z" fill="#62748E"/>
<path d="M186.273 317.437C190.194 317.437 193.372 314.258 193.372 310.338C193.372 306.418 190.194 303.24 186.273 303.24C182.352 303.24 179.174 306.418 179.174 310.338C179.174 314.258 182.352 317.437 186.273 317.437Z" fill="#62748E"/>
<path d="M213.903 317.416C217.824 317.416 221.002 314.237 221.002 310.317C221.002 306.397 217.824 303.219 213.903 303.219C209.982 303.219 206.803 306.397 206.803 310.317C206.803 314.237 209.982 317.416 213.903 317.416Z" fill="#62748E"/>
<path d="M227.633 317.416C231.554 317.416 234.733 314.237 234.733 310.317C234.733 306.397 231.554 303.219 227.633 303.219C223.713 303.219 220.534 306.397 220.534 310.317C220.534 314.237 223.713 317.416 227.633 317.416Z" fill="#62748E"/>
<path d="M296.624 317.437C300.545 317.437 303.723 314.258 303.723 310.338C303.723 306.418 300.545 303.24 296.624 303.24C292.703 303.24 289.525 306.418 289.525 310.338C289.525 314.258 292.703 317.437 296.624 317.437Z" fill="#62748E"/>
<path d="M310.355 317.437C314.276 317.437 317.454 314.258 317.454 310.338C317.454 306.418 314.276 303.24 310.355 303.24C306.434 303.24 303.256 306.418 303.256 310.338C303.256 314.258 306.434 317.437 310.355 317.437Z" fill="#62748E"/>
<path d="M337.901 317.437C341.822 317.437 345 314.258 345 310.338C345 306.418 341.822 303.24 337.901 303.24C333.98 303.24 330.802 306.418 330.802 310.338C330.802 314.258 333.98 317.437 337.901 317.437Z" fill="#62748E"/>
<path d="M117.366 331.208C121.287 331.208 124.466 328.03 124.466 324.109C124.466 320.189 121.287 317.011 117.366 317.011C113.446 317.011 110.267 320.189 110.267 324.109C110.267 328.03 113.446 331.208 117.366 331.208Z" fill="#62748E"/>
<path d="M131.181 331.208C135.102 331.208 138.281 328.03 138.281 324.109C138.281 320.189 135.102 317.011 131.181 317.011C127.261 317.011 124.082 320.189 124.082 324.109C124.082 328.03 127.261 331.208 131.181 331.208Z" fill="#62748E"/>
<path d="M172.542 331.208C176.463 331.208 179.641 328.03 179.641 324.109C179.641 320.189 176.463 317.011 172.542 317.011C168.621 317.011 165.443 320.189 165.443 324.109C165.443 328.03 168.621 331.208 172.542 331.208Z" fill="#62748E"/>
<path d="M200.088 331.208C204.009 331.208 207.187 328.03 207.187 324.109C207.187 320.189 204.009 317.011 200.088 317.011C196.167 317.011 192.989 320.189 192.989 324.109C192.989 328.03 196.167 331.208 200.088 331.208Z" fill="#62748E"/>
<path d="M213.903 331.187C217.824 331.187 221.002 328.009 221.002 324.088C221.002 320.168 217.824 316.99 213.903 316.99C209.982 316.99 206.803 320.168 206.803 324.088C206.803 328.009 209.982 331.187 213.903 331.187Z" fill="#62748E"/>
<path d="M227.633 331.187C231.554 331.187 234.733 328.009 234.733 324.088C234.733 320.168 231.554 316.99 227.633 316.99C223.713 316.99 220.534 320.168 220.534 324.088C220.534 328.009 223.713 331.187 227.633 331.187Z" fill="#62748E"/>
<path d="M241.449 331.208C245.369 331.208 248.548 328.03 248.548 324.109C248.548 320.189 245.369 317.011 241.449 317.011C237.528 317.011 234.349 320.189 234.349 324.109C234.349 328.03 237.528 331.208 241.449 331.208Z" fill="#62748E"/>
<path d="M255.264 331.208C259.184 331.208 262.363 328.03 262.363 324.109C262.363 320.189 259.184 317.011 255.264 317.011C251.343 317.011 248.164 320.189 248.164 324.109C248.164 328.03 251.343 331.208 255.264 331.208Z" fill="#62748E"/>
<path d="M268.994 331.208C272.915 331.208 276.094 328.03 276.094 324.109C276.094 320.189 272.915 317.011 268.994 317.011C265.073 317.011 261.895 320.189 261.895 324.109C261.895 328.03 265.073 331.208 268.994 331.208Z" fill="#62748E"/>
<path d="M282.809 331.208C286.73 331.208 289.908 328.03 289.908 324.109C289.908 320.189 286.73 317.011 282.809 317.011C278.888 317.011 275.71 320.189 275.71 324.109C275.71 328.03 278.888 331.208 282.809 331.208Z" fill="#62748E"/>
<path d="M296.624 331.208C300.545 331.208 303.723 328.03 303.723 324.109C303.723 320.189 300.545 317.011 296.624 317.011C292.703 317.011 289.525 320.189 289.525 324.109C289.525 328.03 292.703 331.208 296.624 331.208Z" fill="#62748E"/>
<path d="M337.901 331.208C341.822 331.208 345 328.03 345 324.109C345 320.189 341.822 317.011 337.901 317.011C333.98 317.011 330.802 320.189 330.802 324.109C330.802 328.03 333.98 331.208 337.901 331.208Z" fill="#62748E"/>
<path d="M144.912 345C148.833 345 152.011 341.822 152.011 337.902C152.011 333.981 148.833 330.803 144.912 330.803C140.991 330.803 137.813 333.981 137.813 337.902C137.813 341.822 140.991 345 144.912 345Z" fill="#62748E"/>
<path d="M172.542 345C176.463 345 179.641 341.822 179.641 337.902C179.641 333.981 176.463 330.803 172.542 330.803C168.621 330.803 165.443 333.981 165.443 337.902C165.443 341.822 168.621 345 172.542 345Z" fill="#62748E"/>
<path d="M200.088 345C204.009 345 207.187 341.822 207.187 337.902C207.187 333.981 204.009 330.803 200.088 330.803C196.167 330.803 192.989 333.981 192.989 337.902C192.989 341.822 196.167 345 200.088 345Z" fill="#62748E"/>
<path d="M255.264 345C259.184 345 262.363 341.822 262.363 337.902C262.363 333.981 259.184 330.803 255.264 330.803C251.343 330.803 248.164 333.981 248.164 337.902C248.164 341.822 251.343 345 255.264 345Z" fill="#62748E"/>
<path d="M268.994 345C272.915 345 276.094 341.822 276.094 337.902C276.094 333.981 272.915 330.803 268.994 330.803C265.073 330.803 261.895 333.981 261.895 337.902C261.895 341.822 265.073 345 268.994 345Z" fill="#62748E"/>
<path d="M282.809 345C286.73 345 289.908 341.822 289.908 337.902C289.908 333.981 286.73 330.803 282.809 330.803C278.888 330.803 275.71 333.981 275.71 337.902C275.71 341.822 278.888 345 282.809 345Z" fill="#62748E"/>
<path d="M296.624 345C300.545 345 303.723 341.822 303.723 337.902C303.723 333.981 300.545 330.803 296.624 330.803C292.703 330.803 289.525 333.981 289.525 337.902C289.525 341.822 292.703 345 296.624 345Z" fill="#62748E"/>
<path d="M310.355 345C314.276 345 317.454 341.822 317.454 337.902C317.454 333.981 314.276 330.803 310.355 330.803C306.434 330.803 303.256 333.981 303.256 337.902C303.256 341.822 306.434 345 310.355 345Z" fill="#62748E"/>
<path d="M324.17 345C328.091 345 331.269 341.822 331.269 337.902C331.269 333.981 328.091 330.803 324.17 330.803C320.249 330.803 317.071 333.981 317.071 337.902C317.071 341.822 320.249 345 324.17 345Z" fill="#62748E"/>
<path d="M337.901 345C341.822 345 345 341.822 345 337.902C345 333.981 341.822 330.803 337.901 330.803C333.98 330.803 330.802 333.981 330.802 337.902C330.802 341.822 333.98 345 337.901 345Z" fill="#62748E"/>
<path d="M0 48.2415C0 75.1189 21.3667 96.483 48.2475 96.483C75.1282 96.483 96.4949 75.1189 96.4949 48.2415C96.4949 21.3641 75.1282 0 48.2475 0C21.3667 0 0 21.3641 0 48.2415ZM48.2475 82.6997C28.9485 82.6997 13.785 67.5381 13.785 48.2415C13.785 28.9449 28.9485 13.7833 48.2475 13.7833C67.5464 13.7833 82.7099 28.9449 82.7099 48.2415C82.7099 67.5381 67.5464 82.6997 48.2475 82.6997Z" fill="#62748E"/>
<path d="M248.164 48.2415C248.164 75.1189 269.531 96.483 296.412 96.483C323.292 96.483 344.659 75.1189 344.659 48.2415C344.659 21.3641 323.292 0 296.412 0C269.531 0 248.164 21.3641 248.164 48.2415ZM296.412 82.6997C277.113 82.6997 261.949 67.5381 261.949 48.2415C261.949 28.9449 277.113 13.7833 296.412 13.7833C315.711 13.7833 330.874 28.9449 330.874 48.2415C330.874 67.5381 315.711 82.6997 296.412 82.6997Z" fill="#62748E"/>
<path d="M0 296.333C0 323.211 21.3667 344.575 48.2475 344.575C75.1282 344.575 96.4949 323.211 96.4949 296.333C96.4949 269.456 75.1282 248.092 48.2475 248.092C21.3667 248.092 0 269.456 0 296.333ZM48.2475 330.792C28.9485 330.792 13.785 315.63 13.785 296.333C13.785 277.037 28.9485 261.875 48.2475 261.875C67.5464 261.875 82.7099 277.037 82.7099 296.333C82.7099 315.63 67.5464 330.792 48.2475 330.792Z" fill="#62748E"/>
<path d="M48.2233 68.9132C59.6431 68.9132 68.9007 59.6568 68.9007 48.2383C68.9007 36.8199 59.6431 27.5634 48.2233 27.5634C36.8034 27.5634 27.5458 36.8199 27.5458 48.2383C27.5458 59.6568 36.8034 68.9132 48.2233 68.9132Z" fill="#62748E"/>
<path d="M296.387 68.9132C307.807 68.9132 317.065 59.6568 317.065 48.2383C317.065 36.8199 307.807 27.5634 296.387 27.5634C284.968 27.5634 275.71 36.8199 275.71 48.2383C275.71 59.6568 284.968 68.9132 296.387 68.9132Z" fill="#62748E"/>
<path d="M48.2233 317.005C59.6431 317.005 68.9007 307.749 68.9007 296.33C68.9007 284.912 59.6431 275.655 48.2233 275.655C36.8034 275.655 27.5458 284.912 27.5458 296.33C27.5458 307.749 36.8034 317.005 48.2233 317.005Z" fill="#62748E"/>
</svg>
