<svg width="640" height="640" viewBox="0 0 640 640" fill="none" xmlns="http://www.w3.org/2000/svg">
<path d="M61.625 81C28.707 81 2 107.707 2 140.625C2 159.382 10.8195 177.021 25.85 188.325L284.225 382.106C305.466 398.006 334.534 398.006 355.775 382.106L614.15 188.325C629.18 177.021 638 159.382 638 140.625C638 107.707 611.293 81 578.375 81H61.625ZM2 244.969V478.5C2 522.349 37.6508 558 81.5 558H558.5C602.349 558 638 522.349 638 478.5V244.969L391.55 429.806C349.191 461.606 290.809 461.606 248.45 429.806L2 244.969Z" fill="white"/>
</svg>
