<svg width="28" height="28" viewBox="0 0 28 28" fill="none" xmlns="http://www.w3.org/2000/svg">
<path d="M24.5 4.20001H3.50002C2.01252 4.20001 0.743774 5.42501 0.743774 6.95626V21.1313C0.743774 22.6188 1.96877 23.8875 3.50002 23.8875H24.5C25.9875 23.8875 27.2563 22.6625 27.2563 21.1313V6.91251C27.2563 5.42501 25.9875 4.20001 24.5 4.20001ZM24.5 6.16876C24.5438 6.16876 24.5875 6.16876 24.6313 6.16876L14 12.9938L3.36877 6.16876C3.41252 6.16876 3.45627 6.16876 3.50002 6.16876H24.5ZM24.5 21.8313H3.50002C3.06252 21.8313 2.71252 21.4813 2.71252 21.0438V8.09376L12.95 14.6563C13.2563 14.875 13.6063 14.9625 13.9563 14.9625C14.3063 14.9625 14.6563 14.875 14.9625 14.6563L25.2 8.09376V21.0875C25.2875 21.525 24.9375 21.8313 24.5 21.8313Z" fill="#F1F5F9"/>
</svg>
