<svg width="24" height="24" viewBox="0 0 24 24" fill="none" xmlns="http://www.w3.org/2000/svg">
<path d="M15.8997 8.0625C18.0747 8.0625 19.7997 6.3375 19.7997 4.1625C19.7997 1.9875 17.9997 0.375 15.8997 0.375H8.09971C5.92471 0.375 4.19971 2.1 4.19971 4.275C4.19971 6.45 5.92471 8.175 8.09971 8.175C5.92471 8.175 4.19971 9.9 4.19971 12.075C4.19971 14.25 5.92471 15.975 8.09971 15.975C5.92471 15.975 4.19971 17.7 4.19971 19.875C4.19971 22.05 5.96221 23.625 8.09971 23.625C10.2372 23.625 11.9997 21.9 11.9997 19.725V8.175H15.8997V8.0625ZM15.8997 8.0625C13.7247 8.0625 11.9997 9.7875 11.9997 11.9625C11.9997 14.1375 13.7247 15.8625 15.8997 15.8625C18.0747 15.8625 19.7997 14.1375 19.7997 11.9625C19.6872 9.7875 17.9997 8.0625 15.8997 8.0625Z" fill="#F1F5F9"/>
</svg>
