<svg width="640" height="640" viewBox="0 0 640 640" fill="none" xmlns="http://www.w3.org/2000/svg">
<path d="M623 103.571C623 55.8219 584.178 17 536.429 17H103.571C55.8219 17 17 55.8219 17 103.571V536.429C17 584.178 55.8219 623 103.571 623H536.429C584.178 623 623 584.178 623 536.429V103.571ZM261.7 575.521C216.114 575.521 189.737 551.984 176.21 523.443L222.607 495.442C231.535 511.269 239.651 524.66 259.265 524.66C277.932 524.66 289.835 517.356 289.835 488.814V295.246H346.783V489.626C346.783 548.603 312.154 575.521 261.7 575.521ZM377.759 517.356L424.156 490.573C436.33 510.457 452.292 525.201 480.292 525.201C503.829 525.201 518.979 513.433 518.979 497.066C518.979 477.587 503.558 470.688 477.452 459.191L463.249 453.104C422.127 435.654 394.938 413.605 394.938 367.208C394.938 324.464 427.538 292 478.263 292C514.515 292 540.487 304.579 559.154 337.585L514.786 365.991C505.046 348.542 494.496 341.643 478.128 341.643C461.49 341.643 450.939 352.194 450.939 365.991C450.939 383.035 461.49 389.933 485.974 400.62L500.177 406.707C548.603 427.403 575.792 448.64 575.792 496.254C575.792 547.385 535.482 575.521 481.51 575.521C428.62 575.521 394.397 550.361 377.759 517.356Z" fill="white"/>
</svg>
