<svg width="28" height="28" viewBox="0 0 28 28" fill="none" xmlns="http://www.w3.org/2000/svg">
<g clip-path="url(#clip0_19_776)">
<path d="M21.2625 27.2563C20.0812 27.2563 18.725 26.95 17.2375 26.3813C14.2625 25.2 10.9812 22.925 8.04997 19.9938C5.11872 17.0625 2.84372 13.7813 1.66247 10.7625C0.349966 7.52501 0.481216 4.85626 2.01247 3.36876C2.05622 3.32501 2.14372 3.28126 2.18747 3.23751L5.86247 1.05001C6.78122 0.52501 7.96247 0.78751 8.57497 1.66251L11.1562 5.51251C11.7687 6.43126 11.5062 7.65626 10.6312 8.26876L9.05622 9.36251C10.1937 11.2 13.4312 15.7063 18.5937 18.9438L19.5562 17.5438C20.3 16.4938 21.4812 16.1875 22.4437 16.8438L26.2937 19.425C27.1687 20.0375 27.4312 21.2188 26.9062 22.1375L24.7187 25.8125C24.675 25.9 24.6312 25.9438 24.5875 25.9875C23.8 26.8188 22.6625 27.2563 21.2625 27.2563ZM3.32497 4.85626C2.49372 5.77501 2.53747 7.65626 3.49997 10.0625C4.59372 12.8188 6.69372 15.8375 9.44997 18.5938C12.1625 21.3063 15.225 23.4063 17.9375 24.5C20.3 25.4625 22.1812 25.5063 23.1437 24.675L25.2437 21.0875C25.2437 21.0438 25.2437 21.0438 25.2437 21L21.3937 18.4188C21.3937 18.4188 21.3062 18.4625 21.2187 18.5938L20.2562 19.9938C19.6437 20.8688 18.4625 21.1313 17.5875 20.5625C12.075 17.15 8.66247 12.3813 7.43747 10.4563C6.86872 9.53751 7.08747 8.35626 7.96247 7.74376L9.53746 6.65001V6.60626L6.95622 2.75626C6.95622 2.71251 6.91247 2.71251 6.86872 2.75626L3.32497 4.85626Z" fill="#F1F5F9"/>
<path d="M25.6375 12.4688C25.1125 12.4688 24.7187 12.075 24.675 11.55C24.325 7.13125 20.6937 3.5875 16.2312 3.28125C15.7062 3.2375 15.2687 2.8 15.3125 2.23125C15.3562 1.70625 15.7937 1.26875 16.3625 1.3125C21.7875 1.6625 26.2062 5.95 26.6437 11.375C26.6875 11.9 26.2937 12.3813 25.725 12.425C25.725 12.4688 25.6812 12.4688 25.6375 12.4688Z" fill="#F1F5F9"/>
<path d="M21.3063 12.8625C20.825 12.8625 20.3875 12.5125 20.3438 11.9875C20.0813 9.62501 18.2438 7.78751 15.8813 7.48126C15.3563 7.43751 14.9625 6.91251 15.0063 6.38751C15.05 5.86251 15.575 5.46876 16.1 5.51251C19.3813 5.90626 21.9188 8.44376 22.3125 11.725C22.3563 12.25 22.0063 12.7313 21.4375 12.8188C21.35 12.8625 21.3063 12.8625 21.3063 12.8625Z" fill="#F1F5F9"/>
</g>
<defs>
<clipPath id="clip0_19_776">
<rect width="28" height="28" fill="white"/>
</clipPath>
</defs>
</svg>
