<svg width="640" height="640" viewBox="0 0 640 640" fill="none" xmlns="http://www.w3.org/2000/svg">
<path d="M189.531 47.6064C180.18 25.2348 155.797 13.398 132.597 19.6716L126.087 21.4471C49.6225 42.2798 -15.7155 116.378 3.34144 206.575C47.2552 413.718 210.245 576.711 417.385 620.626C507.698 639.801 581.677 574.344 602.509 497.878L604.285 491.368C610.677 468.049 598.722 443.666 576.469 434.433L461.299 386.494C441.768 378.326 419.161 384.008 405.667 400.461L359.978 456.331C276.767 415.021 209.771 345.894 171.303 261.024L223.62 218.411C240.073 205.036 245.636 182.427 237.587 162.778L189.531 47.6064Z" fill="white"/>
</svg>
